<svg width="40" height="49" viewBox="0 0 40 49" fill="none" xmlns="http://www.w3.org/2000/svg">
<path d="M26.8533 42.3703L26.8636 42.5699L26.734 42.7218L24.5454 45.2717L31.27 44.2421L26.687 38.9809L26.8533 42.3703Z" fill="#F5F5F7" stroke="black"/>
<path d="M5.51675 22.8618C5.45551 23.3525 5.41628 23.846 5.40152 24.3403L5.40204 24.3416C5.39211 24.6376 5.39207 24.9348 5.40248 25.2327L5.4021 25.2336C5.41189 25.5297 5.43157 25.827 5.45483 26.1364L5.45573 26.1368C5.56049 27.3394 5.85356 28.5167 6.32396 29.6234L6.32306 29.623C6.79989 30.7351 7.41777 31.7788 8.15905 32.7287C8.90035 33.6804 9.72635 34.5608 10.6272 35.3578C11.5264 36.1538 12.4764 36.8889 13.4707 37.5584L13.4725 37.5592C14.4636 38.2319 15.4903 38.8489 16.5408 39.4192C17.5914 39.9896 18.6648 40.5143 19.7556 40.9999C20.5737 41.364 21.401 41.7057 22.237 42.0266L23.0752 42.3406C23.6364 42.5447 24.2023 42.7394 24.7725 42.9256C25.0545 43.0179 25.3387 43.1074 25.6245 43.1935L26.0203 43.3073L26.503 41.1031L26.1988 41.0388L26.1957 41.0386L25.3597 40.8443C25.0815 40.7766 24.803 40.7065 24.5252 40.6336L23.6931 40.407C22.8622 40.1736 22.0368 39.9196 21.2177 39.6437L20.4004 39.3608C19.3171 38.9744 18.2428 38.5472 17.1911 38.0753C16.4027 37.7215 15.6235 37.3421 14.8623 36.933L14.1077 36.5144C13.3573 36.0872 12.6282 35.6231 11.9232 35.1235L11.2263 34.6116C10.4221 34.0025 9.66846 33.3283 8.97203 32.5961L8.67652 32.2788C7.89691 31.4227 7.23048 30.4675 6.69293 29.4372L6.69151 29.4356L6.49798 29.0406C6.06453 28.1118 5.76073 27.1253 5.59609 26.1093L5.59647 26.1084C5.54737 25.8107 5.51764 25.5096 5.49655 25.2175C5.47516 24.9211 5.46352 24.6252 5.45972 24.33L5.45956 24.3278C5.4553 23.8385 5.47505 23.3493 5.51675 22.8618Z" fill="#F5F5F7" stroke="black"/>
</svg>
